<svg xmlns="http://www.w3.org/2000/svg" xmlns:xlink="http://www.w3.org/1999/xlink" version="1.1" id="Layer_1" x="0px" y="0px" width="100.0px" height="100px" viewBox="0 0 512 512" enable-background="new 0 0 512 512" xml:space="preserve">
<g>
	<path d="M256,256c61.875,0,112-57.313,112-128S317.875,0,256,0c-61.844,0-112,57.313-112,128S194.156,256,256,256z M256,224   c-17.688,0-32-14.328-32-32h64C288,209.672,273.688,224,256,224z M181.063,116.813c16.344,12.188,48.063,7.719,76-12.031   c14.063-9.906,24.531-21.969,31-34.016C316.25,83.125,336,111.219,336,144c0,15.844-4.75,30.5-12.688,42.922L256,160   l-67.313,26.922C180.75,174.5,176,159.844,176,144C176,134.406,178,125.328,181.063,116.813z"/>
	<path d="M384,288h-64l-64,96l-64-96h-64c-35.313,0-64,28.656-64,64v64v64c0,17.688,14.344,32,32,32h320c17.688,0,32-14.313,32-32   v-64v-64C448,316.656,419.375,288,384,288z"/>
</g>
</svg>